<?xml version="1.0" encoding="UTF-8"?>
<svg id="Ebene_1" data-name="Ebene 1" xmlns="http://www.w3.org/2000/svg" viewBox="0 0 449.12 105.96">
  <defs>
    <style>
      .cls-1 {
        fill: #1d1d1b;
      }

      .cls-1, .cls-2 {
        stroke-width: 0px;
      }

      .cls-2 {
        fill: #fab60a;
      }
    </style>
  </defs>
  <g>
    <path class="cls-1" d="M99.18,93.71c2.16,2.46,5.58,4.32,9.54,4.32s6.24-2.46,6.24-5.28c0-3.6-3.36-5.16-7.2-6.9-4.98-2.16-10.74-4.62-10.74-12.12,0-6.24,4.86-11.16,12.42-11.16,4.68,0,8.64,1.56,11.52,4.32l-3.24,5.04c-2.34-2.34-5.34-3.42-8.46-3.42s-5.46,1.92-5.46,4.86,3.18,4.5,6.9,6.18c5.1,2.28,11.04,4.92,11.04,12.66,0,6.54-4.44,11.76-13.02,11.76-5.7,0-9.96-1.98-12.9-5.1l3.36-5.16Z"/>
    <path class="cls-1" d="M135.42,103.25v-34.2h-9.18v-5.82h24.96v5.82h-9.18v34.2h-6.6Z"/>
    <path class="cls-1" d="M156.42,95.81c2.22,0,4.02,1.86,4.02,4.02s-1.8,4.08-4.02,4.08-4.02-1.86-4.02-4.08,1.86-4.02,4.02-4.02Z"/>
    <path class="cls-1" d="M188.94,62.57c6.48,0,10.44,3.84,12.72,8.52l-5.4,2.52c-1.44-2.94-3.84-5.16-7.32-5.16-5.7,0-9.54,5.7-9.54,14.82s3.84,14.82,9.54,14.82c2.94,0,5.34-1.38,6.66-2.88v-7.44h-8.4v-5.82h14.7v15.9c-3.18,3.78-7.44,6.18-12.96,6.18-9.84,0-16.32-8.4-16.32-20.76s6.48-20.7,16.32-20.7Z"/>
    <path class="cls-1" d="M232.02,103.25l-2.16-7.92h-13.74l-2.16,7.92h-6.9l11.94-40.02h7.98l11.94,40.02h-6.9ZM223.02,69.17l-5.52,20.28h11.04l-5.52-20.28Z"/>
    <path class="cls-1" d="M245.16,103.25v-40.02h6.66v34.14h13.86v5.88h-20.52Z"/>
    <path class="cls-1" d="M272.1,103.25v-40.02h6.66v34.14h13.86v5.88h-20.52Z"/>
    <path class="cls-1" d="M299.34,103.25v-40.02h21.9v5.82h-15.24v10.86h14.82v5.88h-14.82v11.58h15.24v5.88h-21.9Z"/>
    <path class="cls-1" d="M351.23,103.25l-14.82-27.66v27.66h-6.66v-40.02h6.72l14.46,26.64v-26.64h6.66v40.02h-6.36Z"/>
  </g>
  <g>
    <path class="cls-2" d="M56.45,18.61c0,5.65-4.55,10.23-10.17,10.23-5.61.01-10.17-4.57-10.18-10.2-.01-5.66,4.54-10.24,10.17-10.24,5.61,0,10.17,4.56,10.18,10.21Z"/>
    <path class="cls-2" d="M12.31,20.51C11.67,9.12,19.4,1.49,32.85,0c-9.01,5.45-12.76,14.33-9.71,22.15,3.58,9.17,12.39,14.02,34.46,22.45,25.65,9.8,29.22,22.54,19.04,38.25,1.85-13.66-7.8-21.15-26.02-28.44C28.98,45.75,13.21,36.47,12.31,20.51Z"/>
    <path class="cls-2" d="M8.19,16.95c-6.69,17.9,10.37,30.75,42.02,44.4,28.98,12.5,23.6,29.71,12.78,35.63,7.67-13.19-8.22-21.88-28.11-30.78C8.38,54.36-9.08,37.07,8.19,16.95Z"/>
    <path class="cls-2" d="M.54,46.23c4.75,11.64,15.56,19.34,40.32,30.04,28.07,12.13,16.38,28.87,2.77,29.7,7.28-5.45,5.65-13.54-2.64-18.49-7.51-4.5-23.35-10.11-31.85-17.58C3.85,65.23-1.78,57.76.54,46.23Z"/>
  </g>
  <g>
    <path class="cls-1" d="M99.08,33.43c2.16,2.46,5.58,4.32,9.54,4.32s6.24-2.46,6.24-5.28c0-3.6-3.36-5.16-7.2-6.9-4.98-2.16-10.74-4.62-10.74-12.12,0-6.24,4.86-11.16,12.42-11.16,4.68,0,8.64,1.56,11.52,4.32l-3.24,5.04c-2.34-2.34-5.34-3.42-8.46-3.42s-5.46,1.92-5.46,4.86,3.18,4.5,6.9,6.18c5.1,2.28,11.04,4.92,11.04,12.66,0,6.54-4.44,11.76-13.02,11.76-5.7,0-9.96-1.98-12.9-5.1l3.36-5.16Z"/>
    <path class="cls-1" d="M152.84,42.97l-5.76-28.74-5.7,28.74h-6.96L125.36,2.95h7.14l5.76,29.88,6.18-29.88h5.34l6.24,29.88,5.7-29.88h7.14l-9.06,40.02h-6.96Z"/>
    <path class="cls-1" d="M175.4,42.97V2.95h6.66v40.02h-6.66Z"/>
    <path class="cls-1" d="M192.38,33.43c2.16,2.46,5.58,4.32,9.54,4.32s6.24-2.46,6.24-5.28c0-3.6-3.36-5.16-7.2-6.9-4.98-2.16-10.74-4.62-10.74-12.12,0-6.24,4.86-11.16,12.42-11.16,4.68,0,8.64,1.56,11.52,4.32l-3.24,5.04c-2.34-2.34-5.34-3.42-8.46-3.42s-5.46,1.92-5.46,4.86,3.18,4.5,6.9,6.18c5.1,2.28,11.04,4.92,11.04,12.66,0,6.54-4.44,11.76-13.02,11.76-5.7,0-9.96-1.98-12.9-5.1l3.36-5.16Z"/>
    <path class="cls-1" d="M222.74,33.43c2.16,2.46,5.58,4.32,9.54,4.32s6.24-2.46,6.24-5.28c0-3.6-3.36-5.16-7.2-6.9-4.98-2.16-10.74-4.62-10.74-12.12,0-6.24,4.86-11.16,12.42-11.16,4.68,0,8.64,1.56,11.52,4.32l-3.24,5.04c-2.34-2.34-5.34-3.42-8.46-3.42s-5.46,1.92-5.46,4.86,3.18,4.5,6.9,6.18c5.1,2.28,11.04,4.92,11.04,12.66,0,6.54-4.44,11.76-13.02,11.76-5.7,0-9.96-1.98-12.9-5.1l3.36-5.16Z"/>
    <path class="cls-1" d="M264.68,22.99c0-12.06,6.3-20.7,16.14-20.7,7.14,0,10.74,4.38,12.84,8.82l-5.52,2.46c-1.38-3.18-3.84-5.4-7.32-5.4-5.7,0-9.36,6.24-9.36,14.82s3.66,14.76,9.36,14.76c3.66,0,6.12-2.52,7.38-5.88l5.52,2.46c-2.04,4.68-5.64,9.36-12.9,9.36-9.84,0-16.14-8.7-16.14-20.7Z"/>
    <path class="cls-1" d="M320.96,42.97l-2.16-7.92h-13.74l-2.16,7.92h-6.9l11.94-40.02h7.98l11.94,40.02h-6.9ZM311.96,8.89l-5.52,20.28h11.04l-5.52-20.28Z"/>
    <path class="cls-1" d="M333.74,33.43c2.16,2.46,5.58,4.32,9.54,4.32s6.24-2.46,6.24-5.28c0-3.6-3.36-5.16-7.2-6.9-4.98-2.16-10.74-4.62-10.74-12.12,0-6.24,4.86-11.16,12.42-11.16,4.68,0,8.64,1.56,11.52,4.32l-3.24,5.04c-2.34-2.34-5.34-3.42-8.46-3.42s-5.46,1.92-5.46,4.86,3.18,4.5,6.9,6.18c5.1,2.28,11.04,4.92,11.04,12.66,0,6.54-4.44,11.76-13.02,11.76-5.7,0-9.96-1.98-12.9-5.1l3.36-5.16Z"/>
    <path class="cls-1" d="M363.98,42.97V2.95h6.66v40.02h-6.66Z"/>
    <path class="cls-1" d="M403.1,42.97l-14.82-27.66v27.66h-6.66V2.95h6.72l14.46,26.64V2.95h6.66v40.02h-6.36Z"/>
    <path class="cls-1" d="M433.1,2.29c10.14,0,16.02,8.94,16.02,20.7s-5.88,20.7-16.02,20.7-16.02-8.94-16.02-20.7,5.88-20.7,16.02-20.7ZM433.1,8.17c-6,0-9.24,6.42-9.24,14.82s3.24,14.76,9.24,14.76,9.24-6.48,9.24-14.76-3.3-14.82-9.24-14.82Z"/>
  </g>
</svg>